<?xml version="1.0" standalone="no"?><svg xmlns="http://www.w3.org/2000/svg" viewBox="0 0 1440 320"><path fill="#ff005a" fill-opacity="1" d="M0,32L16,58.7C32,85,64,139,96,144C128,149,160,107,192,96C224,85,256,107,288,138.7C320,171,352,213,384,213.3C416,213,448,171,480,138.7C512,107,544,85,576,112C608,139,640,213,672,240C704,267,736,245,768,218.7C800,192,832,160,864,133.3C896,107,928,85,960,101.3C992,117,1024,171,1056,197.3C1088,224,1120,224,1152,224C1184,224,1216,224,1248,202.7C1280,181,1312,139,1344,128C1376,117,1408,139,1424,149.3L1440,160L1440,320L1424,320C1408,320,1376,320,1344,320C1312,320,1280,320,1248,320C1216,320,1184,320,1152,320C1120,320,1088,320,1056,320C1024,320,992,320,960,320C928,320,896,320,864,320C832,320,800,320,768,320C736,320,704,320,672,320C640,320,608,320,576,320C544,320,512,320,480,320C448,320,416,320,384,320C352,320,320,320,288,320C256,320,224,320,192,320C160,320,128,320,96,320C64,320,32,320,16,320L0,320Z"></path></svg>